<svg width="299" height="46" viewBox="0 0 299 46" fill="none" xmlns="http://www.w3.org/2000/svg">
<path fill-rule="evenodd" clip-rule="evenodd" d="M19.0457 20.5386H14.4534V22.639C13.0769 20.9065 11.1427 20.0402 8.65069 20.0402C6.27737 20.0402 4.23634 20.9539 2.52757 22.7814C0.842519 24.5851 0 26.8041 0 29.4385C0 32.0728 0.842519 34.3038 2.52757 36.1312C4.23634 37.9349 6.27737 38.8367 8.65069 38.8367C11.1427 38.8367 13.0769 37.9705 14.4534 36.238V38.3383H19.0457V20.5386ZM9.50508 34.458C8.08108 34.458 6.9063 33.9952 5.98071 33.0696C5.05513 32.1203 4.59233 30.9099 4.59233 29.4385C4.59233 27.9671 5.05513 26.7685 5.98071 25.8429C6.9063 24.8936 8.08108 24.419 9.50508 24.419C10.9291 24.419 12.1038 24.8936 13.0294 25.8429C13.9787 26.7685 14.4534 27.9671 14.4534 29.4385C14.4534 30.9099 13.9787 32.1203 13.0294 33.0696C12.1038 33.9952 10.9291 34.458 9.50508 34.458ZM38.6246 22.7814C36.9395 20.9539 34.8985 20.0402 32.5015 20.0402C30.0095 20.0402 28.0872 20.9065 26.7344 22.639V20.5386H22.1421V45.4582H26.7344V36.238C28.0872 37.9705 30.0095 38.8367 32.5015 38.8367C34.8985 38.8367 36.9395 37.9349 38.6246 36.1312C40.3334 34.3038 41.1878 32.0728 41.1878 29.4385C41.1878 26.8041 40.3334 24.5851 38.6246 22.7814ZM31.6471 34.458C30.2231 34.458 29.0483 33.9952 28.1228 33.0696C27.1972 32.1203 26.7344 30.9099 26.7344 29.4385C26.7344 27.9671 27.1972 26.7685 28.1228 25.8429C29.0483 24.8936 30.2231 24.419 31.6471 24.419C33.0711 24.419 34.2459 24.8936 35.1715 25.8429C36.1207 26.7685 36.5954 27.9671 36.5954 29.4385C36.5954 30.9099 36.1207 32.1203 35.1715 33.0696C34.2459 33.9952 33.0711 34.458 31.6471 34.458ZM64.113 20.5386H59.5207L59.0935 22.9238C57.9543 21.0014 56.1268 20.0402 53.6111 20.0402C51.048 20.0402 48.8408 20.9065 46.9896 22.639C45.1621 24.3478 44.023 26.4719 43.5721 29.0113C43.0737 31.6219 43.4771 33.9122 44.7825 35.882C46.0877 37.8518 48.0813 38.8367 50.7632 38.8367C53.1602 38.8367 55.13 38.1247 56.6727 36.7008L56.3879 38.3383H60.9802L64.113 20.5386ZM55.8539 33.1764C54.7859 34.0308 53.5636 34.458 52.1872 34.458C50.7632 34.458 49.6714 33.9952 48.912 33.0696C48.1525 32.1203 47.9033 30.8981 48.1644 29.4029C48.4255 27.8603 49.09 26.6499 50.158 25.7717C51.226 24.8699 52.46 24.419 53.8603 24.419C55.2131 24.419 56.2811 24.8461 57.0643 25.7005C57.8712 26.5549 58.1797 27.7059 57.9899 29.1537L57.9187 29.7233C57.6101 31.1472 56.9219 32.2983 55.8539 33.1764ZM73.4384 21.037C72.4653 21.6066 71.7652 22.461 71.338 23.6002V20.5386H66.7457V38.3383H71.338V29.8301C71.338 28.1213 71.8838 26.8991 72.9756 26.1633C74.091 25.4277 75.3488 25.1429 76.749 25.3089V24.9529V20.5386V20.1826C75.5387 20.1826 74.4351 20.4674 73.4384 21.037ZM79.2207 20.5386H79.2213V16.9431L83.8139 15.5547V20.5386H87.8366V24.9529H83.8139V32.3576C83.8139 32.9747 83.9681 33.4256 84.2766 33.7104C84.5851 33.9952 85.0361 34.1614 85.6289 34.2088C86.2225 34.2326 86.9587 34.2206 87.8366 34.1732V38.3383C84.6801 38.6943 82.449 38.3977 81.1437 37.4484C79.8621 36.499 79.2213 34.8022 79.2213 32.3576V24.9529H79.2207V20.5386Z" fill="#484848"/>
<circle cx="118.346" cy="17.6559" r="14.4153" transform="rotate(-9.77897 118.346 17.6559)" stroke="#484848" stroke-width="2.8043" stroke-dasharray="5.61 5.61"/>
<circle cx="107.066" cy="27.3468" r="12.1163" fill="#484848"/>
<path d="M162 3V44" stroke="#484848"/>
<path d="M206.64 15V33H204.264V17.304H193.896V33H191.52V15H206.64ZM221.313 14.568C223.881 14.568 226.065 15.48 227.865 17.304C229.689 19.128 230.601 21.36 230.601 24C230.601 26.64 229.689 28.872 227.865 30.696C226.065 32.52 223.881 33.432 221.313 33.432C218.121 33.432 215.697 32.112 214.041 29.472V40.2H211.665V15H214.041V18.528C215.697 15.888 218.121 14.568 221.313 14.568ZM216.093 29.076C217.461 30.444 219.141 31.128 221.133 31.128C223.125 31.128 224.805 30.444 226.173 29.076C227.541 27.684 228.225 25.992 228.225 24C228.225 22.008 227.541 20.328 226.173 18.96C224.805 17.568 223.125 16.872 221.133 16.872C219.141 16.872 217.461 17.568 216.093 18.96C214.725 20.328 214.041 22.008 214.041 24C214.041 25.992 214.725 27.684 216.093 29.076ZM249.635 30.732C247.811 32.532 245.579 33.432 242.939 33.432C240.299 33.432 238.055 32.532 236.207 30.732C234.383 28.908 233.471 26.664 233.471 24C233.471 21.336 234.383 19.104 236.207 17.304C238.055 15.48 240.299 14.568 242.939 14.568C245.579 14.568 247.811 15.48 249.635 17.304C251.483 19.104 252.407 21.336 252.407 24C252.407 26.664 251.483 28.908 249.635 30.732ZM237.899 29.076C239.267 30.444 240.947 31.128 242.939 31.128C244.931 31.128 246.611 30.444 247.979 29.076C249.347 27.684 250.031 25.992 250.031 24C250.031 22.008 249.347 20.328 247.979 18.96C246.611 17.568 244.931 16.872 242.939 16.872C240.947 16.872 239.267 17.568 237.899 18.96C236.531 20.328 235.847 22.008 235.847 24C235.847 25.992 236.531 27.684 237.899 29.076ZM274.023 15V33H271.647V18.636L265.347 28.86H265.059L258.759 18.636V33H256.383V15H259.119L265.203 24.864L271.287 15H274.023ZM294.143 30.732C292.319 32.532 290.087 33.432 287.447 33.432C284.807 33.432 282.563 32.532 280.715 30.732C278.891 28.908 277.979 26.664 277.979 24C277.979 21.336 278.891 19.104 280.715 17.304C282.563 15.48 284.807 14.568 287.447 14.568C290.087 14.568 292.319 15.48 294.143 17.304C295.991 19.104 296.915 21.336 296.915 24C296.915 26.664 295.991 28.908 294.143 30.732ZM282.407 29.076C283.775 30.444 285.455 31.128 287.447 31.128C289.439 31.128 291.119 30.444 292.487 29.076C293.855 27.684 294.539 25.992 294.539 24C294.539 22.008 293.855 20.328 292.487 18.96C291.119 17.568 289.439 16.872 287.447 16.872C285.455 16.872 283.775 17.568 282.407 18.96C281.039 20.328 280.355 22.008 280.355 24C280.355 25.992 281.039 27.684 282.407 29.076Z" fill="#E58070"/>
</svg>
